<svg width="21" height="20" viewBox="0 0 21 20" fill="none" xmlns="http://www.w3.org/2000/svg">
<path d="M10.4948 19.375C7.93372 19.375 7.6318 19.3615 6.63236 19.3178C5.85297 19.2922 5.08367 19.134 4.35758 18.85C3.10131 18.3618 2.10793 17.3695 1.61952 16.1149C1.34603 15.3872 1.19852 14.6184 1.1833 13.8413C1.125 12.8453 1.125 12.5189 1.125 9.98129C1.125 7.41662 1.13853 7.11722 1.1833 6.12442C1.19885 5.34839 1.34636 4.58064 1.61952 3.85396C2.1074 2.59765 3.10239 1.60447 4.3607 1.11776C5.08805 0.843524 5.85711 0.695842 6.63444 0.681138C7.62868 0.625 7.95558 0.625 10.4948 0.625C13.0767 0.625 13.3734 0.638515 14.3572 0.681138C15.1366 0.695969 15.9077 0.843635 16.6372 1.11776C17.8952 1.60502 18.89 2.59801 19.3784 3.85396C19.6565 4.59123 19.8048 5.37098 19.8167 6.15872C19.875 7.15465 19.875 7.48004 19.875 10.0166C19.875 12.5532 19.8604 12.8859 19.8167 13.8704C19.8012 14.6482 19.6533 15.4177 19.3794 16.146C18.8898 17.4016 17.8949 18.3942 16.6372 18.8822C15.9087 19.1548 15.1392 19.3021 14.3614 19.3178C13.3672 19.375 13.0413 19.375 10.4948 19.375ZM10.4594 2.27067C7.9129 2.27067 7.64846 2.28314 6.65422 2.32784C6.06078 2.33569 5.47308 2.44505 4.91664 2.65116C4.09497 2.96512 3.44478 3.61173 3.12701 4.43093C2.91902 4.99262 2.80949 5.58589 2.80323 6.18471C2.74806 7.19207 2.74806 7.45613 2.74806 9.98129C2.74806 12.4763 2.75743 12.7788 2.80323 13.7799C2.81255 14.3727 2.92202 14.9597 3.12701 15.516C3.44525 16.3347 4.09532 16.9808 4.91664 17.2948C5.4727 17.5023 6.06064 17.6117 6.65422 17.6181C7.66199 17.6763 7.92747 17.6763 10.4594 17.6763C13.0132 17.6763 13.2776 17.6638 14.2635 17.6181C14.8574 17.6109 15.4455 17.5015 16.0022 17.2948C16.8189 16.9781 17.4648 16.3335 17.7824 15.5181C17.99 14.956 18.0995 14.3624 18.1062 13.7633H18.1176C18.1624 12.7695 18.1624 12.5044 18.1624 9.96465C18.1624 7.42494 18.151 7.15777 18.1062 6.16496C18.0969 5.57286 17.9874 4.9866 17.7824 4.43093C17.4655 3.61441 16.8195 2.96853 16.0022 2.65116C15.4456 2.44401 14.8574 2.33462 14.2635 2.32784C13.2568 2.27067 12.9934 2.27067 10.4594 2.27067ZM10.4948 14.7831C8.54795 14.7844 6.79208 13.6144 6.04608 11.8187C5.30008 10.0231 5.7109 7.95547 7.08693 6.58024C8.46296 5.205 10.5332 4.79299 12.3321 5.53636C14.131 6.27972 15.3042 8.03205 15.3046 9.97609C15.3018 12.6281 13.1507 14.778 10.4948 14.7831ZM10.4948 6.85525C8.76986 6.85525 7.37153 8.25156 7.37153 9.97401C7.37153 11.6965 8.76986 13.0928 10.4948 13.0928C12.2197 13.0928 13.6181 11.6965 13.6181 9.97401C13.6141 8.25322 12.2181 6.85925 10.4948 6.85525ZM15.492 6.11403C14.873 6.11173 14.3727 5.60939 14.3739 4.99128C14.375 4.37316 14.8772 3.87268 15.4962 3.87268C16.1152 3.87268 16.6173 4.37315 16.6185 4.99127C16.6188 5.28949 16.5001 5.57554 16.2887 5.78622C16.0774 5.99689 15.7907 6.11485 15.492 6.11403Z" fill="#4B6D85"/>
</svg>
