<svg width="21" height="20" viewBox="0 0 21 20" fill="none" xmlns="http://www.w3.org/2000/svg">
<path fill-rule="evenodd" clip-rule="evenodd" d="M5.31212 3.15325C5.31212 4.19084 4.52208 5.03053 3.28661 5.03053C2.09926 5.03053 1.30923 4.19084 1.33368 3.15325C1.30923 2.06524 2.09925 1.25 3.31027 1.25C4.52206 1.25 5.28843 2.06524 5.31212 3.15325ZM1.43301 18.5993V6.51355H5.1891V18.5986H1.43301V18.5993Z" fill="#4B6D85"/>
<path fill-rule="evenodd" clip-rule="evenodd" d="M8.19978 10.3708C8.19978 8.86331 8.15011 7.57817 8.10045 6.51538H11.363L11.5364 8.17108H11.6105C12.1049 7.40474 13.3403 6.24414 15.3422 6.24414C17.8131 6.24414 19.6667 7.87539 19.6667 11.4328V18.6012H15.9106V11.9035C15.9106 10.3456 15.3674 9.28354 14.0081 9.28354C12.9698 9.28354 12.3524 10.0002 12.1056 10.6917C12.0063 10.9392 11.9574 11.2846 11.9574 11.6315V18.6012H8.2013V10.3708H8.19978Z" fill="#4B6D85"/>
</svg>
