<svg width="49" height="58" viewBox="0 0 49 58" fill="none" xmlns="http://www.w3.org/2000/svg">
<path d="M1.18429 53V41.6747H4.85062V52.0114L3.10383 50.2646H9.35195V53H1.18429ZM15.6788 53.2591C14.5783 53.2591 13.5673 53.0352 12.6459 52.5873C11.7309 52.1394 10.9983 51.474 10.448 50.591C9.89777 49.708 9.62263 48.6202 9.62263 47.3277C9.62263 46.0289 9.89137 44.9475 10.4288 44.0837C10.9727 43.2135 11.7021 42.5609 12.6171 42.1258C13.5385 41.6843 14.5591 41.4635 15.6788 41.4635C16.8049 41.4635 17.8255 41.6843 18.7405 42.1258C19.6555 42.5609 20.3817 43.2135 20.9192 44.0837C21.463 44.9475 21.735 46.0289 21.735 47.3277C21.735 48.6202 21.4598 49.708 20.9096 50.591C20.3593 51.474 19.6235 52.1394 18.7021 52.5873C17.7871 53.0352 16.7793 53.2591 15.6788 53.2591ZM15.6788 50.3798C16.0819 50.3798 16.4594 50.303 16.8113 50.1495C17.1696 49.9895 17.4576 49.692 17.6751 49.2569C17.8991 48.8154 18.011 48.1723 18.011 47.3277C18.011 46.4767 17.8991 45.8369 17.6751 45.4082C17.4512 44.9731 17.16 44.682 16.8017 44.5348C16.4498 44.3812 16.0755 44.3045 15.6788 44.3045C15.2821 44.3045 14.9046 44.3812 14.5463 44.5348C14.1879 44.682 13.8968 44.9731 13.6729 45.4082C13.4553 45.8369 13.3465 46.4767 13.3465 47.3277C13.3465 48.1723 13.4585 48.8154 13.6825 49.2569C13.9064 49.692 14.1943 49.9895 14.5463 50.1495C14.9046 50.303 15.2821 50.3798 15.6788 50.3798ZM28.6678 53.2111C27.5801 53.2111 26.6139 52.9968 25.7693 52.5681C24.9311 52.1394 24.2721 51.4932 23.7922 50.6294C23.3187 49.7656 23.0819 48.6842 23.0819 47.3853C23.0819 46.0864 23.3507 44.9987 23.8881 44.1221C24.432 43.2391 25.155 42.5769 26.0572 42.1354C26.9658 41.6875 27.9704 41.4635 29.0709 41.4635C30.0307 41.4635 30.8465 41.6011 31.5183 41.8762C32.1902 42.1514 32.734 42.5033 33.1499 42.932C33.5658 43.3543 33.8698 43.7958 34.0617 44.2565C34.2537 44.7108 34.3497 45.1203 34.3497 45.485C34.3497 45.4978 34.3497 45.5138 34.3497 45.533C34.3497 45.5522 34.3497 45.5682 34.3497 45.581H30.7889C30.7889 45.5682 30.7889 45.5522 30.7889 45.533C30.7889 45.5138 30.7889 45.4978 30.7889 45.485C30.7889 45.3506 30.7473 45.2162 30.6641 45.0819C30.581 44.9411 30.4626 44.8131 30.309 44.698C30.1619 44.5764 29.9827 44.4804 29.7715 44.41C29.5604 44.3397 29.3269 44.3045 29.0709 44.3045C28.719 44.3045 28.3639 44.378 28.0056 44.5252C27.6473 44.666 27.3497 44.9571 27.113 45.3986C26.8762 45.8337 26.7579 46.4959 26.7579 47.3853C26.7579 48.102 26.825 48.665 26.9594 49.0745C27.0938 49.4776 27.2729 49.772 27.4969 49.9575C27.7208 50.1431 27.964 50.2615 28.2263 50.3126C28.4951 50.3574 28.7638 50.3798 29.0325 50.3798C29.4228 50.3798 29.7588 50.3254 30.0403 50.2167C30.3282 50.1015 30.5586 49.9735 30.7313 49.8328C30.9041 49.692 31.0129 49.5736 31.0576 49.4776V49.4488H29.0133V46.915H34.2921V53H32.5933L32.219 51.6083C32.1678 51.7491 32.0142 51.9474 31.7583 52.2034C31.5087 52.4593 31.1312 52.6929 30.6257 52.904C30.1267 53.1088 29.474 53.2111 28.6678 53.2111ZM42.0538 53.2591C40.9532 53.2591 39.9423 53.0352 39.0209 52.5873C38.1059 52.1394 37.3733 51.474 36.823 50.591C36.2728 49.708 35.9976 48.6202 35.9976 47.3277C35.9976 46.0289 36.2664 44.9475 36.8038 44.0837C37.3477 43.2135 38.0771 42.5609 38.9921 42.1258C39.9135 41.6843 40.934 41.4635 42.0538 41.4635C43.1799 41.4635 44.2005 41.6843 45.1154 42.1258C46.0304 42.5609 46.7567 43.2135 47.2941 44.0837C47.838 44.9475 48.1099 46.0289 48.1099 47.3277C48.1099 48.6202 47.8348 49.708 47.2845 50.591C46.7343 51.474 45.9984 52.1394 45.0771 52.5873C44.1621 53.0352 43.1543 53.2591 42.0538 53.2591ZM42.0538 50.3798C42.4569 50.3798 42.8344 50.303 43.1863 50.1495C43.5446 49.9895 43.8326 49.692 44.0501 49.2569C44.274 48.8154 44.386 48.1723 44.386 47.3277C44.386 46.4767 44.274 45.8369 44.0501 45.4082C43.8262 44.9731 43.535 44.682 43.1767 44.5348C42.8248 44.3812 42.4505 44.3045 42.0538 44.3045C41.6571 44.3045 41.2796 44.3812 40.9212 44.5348C40.5629 44.682 40.2718 44.9731 40.0479 45.4082C39.8303 45.8369 39.7215 46.4767 39.7215 47.3277C39.7215 48.1723 39.8335 48.8154 40.0575 49.2569C40.2814 49.692 40.5693 49.9895 40.9212 50.1495C41.2796 50.303 41.6571 50.3798 42.0538 50.3798Z" fill="#4B6D85"/>
<rect x="8.5" width="31" height="31" rx="8.61111" fill="#00D2FF"/>
</svg>
